<svg version="1.2" xmlns="http://www.w3.org/2000/svg" viewBox="0 0 3710 3710" width="3710" height="3710">
	<title>12083704_Wavy_Bus-35_Single-02-ai</title>
	<defs>
		<linearGradient id="g1" x1="1213.8" y1="743.9" x2="2557.2" y2="743.9" gradientUnits="userSpaceOnUse">
			<stop offset="0" stop-color="#ffc444"/>
			<stop offset="1" stop-color="#f36f56"/>
		</linearGradient>
		<linearGradient id="g2" x1="1738" y1="1424.9" x2="3347.5" y2="1535.9" gradientUnits="userSpaceOnUse">
			<stop offset="0" stop-color="#ff9085"/>
			<stop offset="1" stop-color="#fb6fbb"/>
		</linearGradient>
		<linearGradient id="g3" x1="3526.5" y1="2063.6" x2="2718" y2="3407" gradientUnits="userSpaceOnUse">
			<stop offset="0" stop-color="#ffc444"/>
			<stop offset="1" stop-color="#f36f56"/>
		</linearGradient>
		<linearGradient id="g4" x1="515.9" y1="1576.4" x2="2340" y2="1576.4" gradientUnits="userSpaceOnUse">
			<stop offset="0" stop-color="#444b8c"/>
			<stop offset="1" stop-color="#26264f"/>
		</linearGradient>
		<linearGradient id="g5" x1="590.8" y1="1650.9" x2="2278.3" y2="1650.9" gradientUnits="userSpaceOnUse">
			<stop offset="0" stop-color="#aa80f9"/>
			<stop offset="1" stop-color="#6165d7"/>
		</linearGradient>
		<linearGradient id="g6" x1="515.9" y1="2836.6" x2="3263.9" y2="2836.6" gradientUnits="userSpaceOnUse">
			<stop offset="0" stop-color="#444b8c"/>
			<stop offset="1" stop-color="#26264f"/>
		</linearGradient>
		<linearGradient id="g7" x1="1838.7" y1="633.3" x2="3051.6" y2="633.3" gradientUnits="userSpaceOnUse">
			<stop offset="0" stop-color="#ffffff"/>
			<stop offset="1" stop-color="#ebeff2"/>
		</linearGradient>
		<linearGradient id="g8" x1="3340.8" y1="694.6" x2="3026.5" y2="1310" gradientUnits="userSpaceOnUse">
			<stop offset="0" stop-color="#ab316d"/>
			<stop offset="1" stop-color="#792d3d"/>
		</linearGradient>
		<linearGradient id="g9" x1="3377.4" y1="592.7" x2="3038.2" y2="1256.9" gradientUnits="userSpaceOnUse">
			<stop offset="0" stop-color="#ab316d"/>
			<stop offset="1" stop-color="#792d3d"/>
		</linearGradient>
		<linearGradient id="g10" x1="2290.7" y1="2257.5" x2="2163.8" y2="1337.1" gradientUnits="userSpaceOnUse">
			<stop offset="0" stop-color="#e38ddd"/>
			<stop offset="1" stop-color="#9571f6"/>
		</linearGradient>
		<linearGradient id="g11" x1="2237.3" y1="1478.8" x2="2220.5" y2="1113" gradientUnits="userSpaceOnUse">
			<stop offset="0" stop-color="#ffc444"/>
			<stop offset="1" stop-color="#f36f56"/>
		</linearGradient>
		<linearGradient id="g12" x1="2238.2" y1="1147.8" x2="2244.6" y2="903.9" gradientUnits="userSpaceOnUse">
			<stop offset="0" stop-color="#ffc444"/>
			<stop offset="1" stop-color="#f36f56"/>
		</linearGradient>
		<linearGradient id="g13" x1="2286" y1="1126.5" x2="2292" y2="898.8" gradientUnits="userSpaceOnUse">
			<stop offset="0" stop-color="#ffc444"/>
			<stop offset="1" stop-color="#f36f56"/>
		</linearGradient>
		<linearGradient id="g14" x1="2480.4" y1="1130.8" x2="2486.2" y2="911.4" gradientUnits="userSpaceOnUse">
			<stop offset="0" stop-color="#ffc444"/>
			<stop offset="1" stop-color="#f36f56"/>
		</linearGradient>
		<linearGradient id="g15" x1="1884.9" y1="1903.5" x2="2880.6" y2="1903.5" gradientUnits="userSpaceOnUse">
			<stop offset="0" stop-color="#ffffff"/>
			<stop offset="1" stop-color="#ebeff2"/>
		</linearGradient>
		<linearGradient id="g16" x1="2541.9" y1="1731.2" x2="2642" y2="3327.1" gradientUnits="userSpaceOnUse">
			<stop offset="0" stop-color="#f36f56"/>
			<stop offset="1" stop-color="#ffc444"/>
		</linearGradient>
		<linearGradient id="g17" x1="2373.2" y1="2489.5" x2="2370.2" y2="2302.5" gradientUnits="userSpaceOnUse">
			<stop offset="0" stop-color="#311944"/>
			<stop offset="1" stop-color="#893976"/>
		</linearGradient>
		<linearGradient id="g18" x1="2307.1" y1="2504.6" x2="2306.1" y2="2356.5" gradientUnits="userSpaceOnUse">
			<stop offset="0" stop-color="#ab316d"/>
			<stop offset="1" stop-color="#792d3d"/>
		</linearGradient>
		<linearGradient id="g19" x1="2201.1" y1="2281.1" x2="2226.6" y2="1975.1" gradientUnits="userSpaceOnUse">
			<stop offset="0" stop-color="#ab316d"/>
			<stop offset="1" stop-color="#792d3d"/>
		</linearGradient>
		<linearGradient id="g20" x1="2238.3" y1="2287.8" x2="2264.2" y2="1975.5" gradientUnits="userSpaceOnUse">
			<stop offset="0" stop-color="#ab316d"/>
			<stop offset="1" stop-color="#792d3d"/>
		</linearGradient>
		<linearGradient id="g21" x1="2411.4" y1="2294.1" x2="2436.5" y2="1991.9" gradientUnits="userSpaceOnUse">
			<stop offset="0" stop-color="#ab316d"/>
			<stop offset="1" stop-color="#792d3d"/>
		</linearGradient>
		<linearGradient id="g22" x1="2243" y1="2113.2" x2="2315.5" y2="1888.3" gradientUnits="userSpaceOnUse">
			<stop offset="0" stop-color="#311944"/>
			<stop offset="1" stop-color="#6b3976"/>
		</linearGradient>
		<linearGradient id="g23" x1="2294.6" y1="2122" x2="2373.4" y2="1877.6" gradientUnits="userSpaceOnUse">
			<stop offset="0" stop-color="#311944"/>
			<stop offset="1" stop-color="#6b3976"/>
		</linearGradient>
		<linearGradient id="g24" x1="662.2" y1="1121.5" x2="2194.1" y2="1121.5" gradientUnits="userSpaceOnUse">
			<stop offset="0" stop-color="#ffffff"/>
			<stop offset="1" stop-color="#ebeff2"/>
		</linearGradient>
		<linearGradient id="g25" x1="2212.9" y1="1165.3" x2="1461.3" y2="2644.8" gradientUnits="userSpaceOnUse">
			<stop offset="0" stop-color="#ff9085"/>
			<stop offset="1" stop-color="#fb6fbb"/>
		</linearGradient>
		<linearGradient id="g26" x1="1348.3" y1="2169.4" x2="1359.3" y2="1568.3" gradientUnits="userSpaceOnUse">
			<stop offset="0" stop-color="#311944"/>
			<stop offset=".6" stop-color="#6f2b60"/>
			<stop offset="1" stop-color="#a03976"/>
		</linearGradient>
		<linearGradient id="g27" x1="1701.8" y1="1742.2" x2="1745.1" y2="2023.4" gradientUnits="userSpaceOnUse">
			<stop offset="0" stop-color="#ffc444"/>
			<stop offset="1" stop-color="#f36f56"/>
		</linearGradient>
		<linearGradient id="g28" x1="1586.1" y1="1365.3" x2="1575.7" y2="2050.9" gradientUnits="userSpaceOnUse">
			<stop offset="0" stop-color="#ffc444"/>
			<stop offset="1" stop-color="#f36f56"/>
		</linearGradient>
		<linearGradient id="g29" x1="1324" y1="1315.1" x2="1392.7" y2="2011.8" gradientUnits="userSpaceOnUse">
			<stop offset="0" stop-color="#ffc444"/>
			<stop offset="1" stop-color="#f36f56"/>
		</linearGradient>
		<linearGradient id="g30" x1="1669.1" y1="1365.5" x2="1658.8" y2="2041.8" gradientUnits="userSpaceOnUse">
			<stop offset="0" stop-color="#ffc444"/>
			<stop offset="1" stop-color="#f36f56"/>
		</linearGradient>
		<linearGradient id="g31" x1="1478.3" y1="1185.3" x2="1443.9" y2="1481.8" gradientUnits="userSpaceOnUse">
			<stop offset="0" stop-color="#ffc444"/>
			<stop offset="1" stop-color="#f36f56"/>
		</linearGradient>
		<linearGradient id="g32" x1="490.9" y1="837.4" x2="1145.6" y2="837.4" gradientUnits="userSpaceOnUse">
			<stop offset="0" stop-color="#aa80f9"/>
			<stop offset="1" stop-color="#6165d7"/>
		</linearGradient>
		<linearGradient id="g33" x1="791.5" y1="644.9" x2="1454.6" y2="1518.2" gradientUnits="userSpaceOnUse">
			<stop offset="0" stop-color="#aa80f9"/>
			<stop offset="1" stop-color="#6165d7"/>
		</linearGradient>
	</defs>
	<style>
		.s0 { fill: #d8dee8 } 
		.s1 { opacity: .5;mix-blend-mode: soft-light;fill: #f4f7fa } 
		.s2 { fill: url(#g1) } 
		.s3 { fill: url(#g2) } 
		.s4 { fill: url(#g3) } 
		.s5 { fill: #26264f } 
		.s6 { fill: url(#g4) } 
		.s7 { fill: url(#g5) } 
		.s8 { fill: #ffffff } 
		.s9 { opacity: .5;mix-blend-mode: soft-light;fill: #ffffff } 
		.s10 { fill: url(#g6) } 
		.s11 { fill: url(#g7) } 
		.s12 { fill: url(#g8) } 
		.s13 { opacity: .7;mix-blend-mode: multiply;fill: url(#g9) } 
		.s14 { fill: url(#g10) } 
		.s15 { fill: url(#g11) } 
		.s16 { fill: url(#g12) } 
		.s17 { fill: url(#g13) } 
		.s18 { fill: url(#g14) } 
		.s19 { fill: url(#g15) } 
		.s20 { fill: url(#g16) } 
		.s21 { fill: url(#g17) } 
		.s22 { fill: url(#g18) } 
		.s23 { fill: url(#g19) } 
		.s24 { fill: url(#g20) } 
		.s25 { fill: url(#g21) } 
		.s26 { fill: url(#g22) } 
		.s27 { fill: url(#g23) } 
		.s28 { mix-blend-mode: multiply;fill: #d8dee8 } 
		.s29 { fill: url(#g24) } 
		.s30 { fill: url(#g25) } 
		.s31 { fill: url(#g26) } 
		.s32 { fill: url(#g27) } 
		.s33 { fill: url(#g28) } 
		.s34 { fill: url(#g29) } 
		.s35 { fill: url(#g30) } 
		.s36 { fill: url(#g31) } 
		.s37 { fill: url(#g32) } 
		.s38 { fill: url(#g33) } 
	</style>
	<g id="_Artboards_">
	</g>
	<g id="Background">
		<g id="&lt;Group&gt;">
			<g id="&lt;Group&gt;">
			</g>
		</g>
	</g>
	<g id="Illustration">
		<g id="&lt;Group&gt;">
			<g id="&lt;Group&gt;">
				<g id="&lt;Group&gt;">
					<path id="&lt;Path&gt;" class="s0" d="m1890.9 3003.3c-123.5-22.5-154-287.7-157.9-325.4-9.7-94.4-21.7-211.4 46.5-310.3 98.7-143.1 266.7-105.8 306.8-224.6 24.6-73.1-36-95.5-38.9-235.1-0.8-40-3.7-184.7 97.4-301.6 72.1-83.3 163.8-114 212.3-125.9 15.8-40 34.1-100.5 33.7-174.4-0.7-118.5-49.1-164.3-24-227.1 28.8-72.1 131.6-109.7 209.7-109 208.3 2 322.4 276.7 330.2 296.3 20.2 50.5 84.2 210.4 10.9 326.9-57.8 92-156.1 84.9-171.1 160.5-14.9 75.5 78.5 104.8 100.6 220 18.8 98.4-22.7 215.6-96.1 281.7-122.7 110.3-272.9 22.2-338.6 113.6-76.5 106.4 77.8 294.3 9.6 357.7-64.8 60.2-234.2-80.9-316.7-10.6-59.6 50.8-4.3 152.8-84.8 234.4-4.8 4.9-65.2 64.6-129.6 52.9z"/>
					<path id="&lt;Path&gt;" class="s1" d="m2539.4 1032.5c79.1 18.2 115.8 256.5 73.9 460.5-28.7 140.5-69.8 143.1-175.2 380.9-142.9 322.3-89.8 367.8-193.7 480.4-142.5 154.6-288.8 119.1-367.2 267.7-53.1 100.6-37.8 214.7-14.7 298.5-29.5-45.2-75.2-128.8-88-242-8.3-73.8-23.3-207.2 53.4-288.4 92.1-97.4 227.8-25.9 291-116.5 35.8-51.4 3.6-90.7-4.7-266.1-8.4-176.9-12.5-265.3 35.3-340.8 85.5-134.7 239.1-79.8 291.6-196.6 54.5-121.1-83.9-239.4-11.9-362.1 23.2-39.6 71.2-84.5 110.2-75.5z"/>
				</g>
				<g id="&lt;Group&gt;">
					<path id="&lt;Path&gt;" class="s2" d="m2376 2971.3c135.2-24.7 168.7-315.1 173-356.4 10.6-103.4 23.8-231.6-51-340-108.1-156.7-292.1-115.9-336.1-246-26.9-80 39.5-104.6 42.6-257.5 0.9-43.9 4.2-202.3-106.6-330.4-79-91.3-179.5-124.9-232.6-138-17.3-43.7-37.4-110.1-36.9-191 0.7-129.8 53.8-179.9 26.2-248.8-31.5-78.9-144.1-120.1-229.7-119.3-228.1 2.1-353.1 303.1-361.6 324.5-22.2 55.3-92.3 230.5-12 358.1 63.3 100.8 171 93 187.4 175.9 16.4 82.6-85.9 114.8-110.1 241-20.7 107.7 24.8 236.2 105.2 308.5 134.4 120.8 299 24.3 370.9 124.4 83.8 116.6-85.2 322.5-10.5 391.9 71 66 256.5-88.6 346.9-11.6 65.4 55.6 4.8 167.4 92.9 256.8 5.3 5.4 71.4 70.8 142 57.9z"/>
					<path id="&lt;Path&gt;" class="s1" d="m1665.6 812.4c-86.7 20-126.8 281-81 504.5 31.5 153.9 76.5 156.8 192 417.3 156.5 353 98.3 402.9 212.1 526.2 156.2 169.3 316.4 130.4 402.3 293.2 58.2 110.3 41.4 235.2 16.1 327.1 32.3-49.6 82.4-141.2 96.4-265.2 9.1-80.8 25.6-227-58.5-315.9-100.9-106.7-249.5-28.4-318.7-127.7-39.3-56.2-4-99.3 5.1-291.4 9.1-193.8 13.7-290.7-38.7-373.4-93.6-147.5-261.9-87.3-319.4-215.3-59.7-132.7 91.8-262.3 13-396.7-25.4-43.4-78-92.6-120.7-82.7z"/>
				</g>
				<g id="&lt;Group&gt;">
					<path id="&lt;Path&gt;" class="s3" d="m1833.1 3018.7c-73.9-12.7-114.7-194.7-98.9-335.9 6.1-54.6 12.2-109 51.9-158.4 67.1-83.6 144.6-47 203.6-114.4 87.1-99.4-21.3-248.5 62.6-329.4 61.7-59.5 139.9 2.3 213.5-62.2 85.4-74.8 33.3-204.6 106.8-237.6 42.7-19.2 71.5 19.6 187 11.4 45.2-3.2 67.8-4.8 88.5-17.2 72.5-43.7 37.5-142.6 95.5-203.2 63.8-66.7 202.1-47 284.4-10.1 147.4 66 213.7 231.2 215.9 362.7 0.5 28.1 0.7 211.5-130.7 308.6-95.6 70.6-224.2 68.5-245 68.2-81.2-1.4-97.5-24.9-126.3-7.9-83.4 49.3 32.9 257.9-73.6 391-43.5 54.3-117.6 87.9-183.3 90.9-106.2 4.8-151.9-71.9-208.4-45.6-73 34.1-28.8 177.7-108.9 220-56.6 30-100.2-30.6-195.7-5.4-84.7 22.4-95.2 82-138.9 74.5z"/>
					<path id="&lt;Path&gt;" class="s1" d="m1837.2 2885.5c33.7 8.3 51.7-83.2 166.7-203.3 125.6-131.3 193.1-115 310-233.1 133.5-134.7 71.9-182.6 183.7-286.9 151.6-141.5 280.5-68.3 462.8-233.9 54.7-49.6 127.5-117.7 115.6-201.2-10.3-72.4-82.8-146.9-165.1-147-3.5 0-72.7 0.9-116.8 54.1-54.2 65.3-7.6 133.1-57.8 182.6-26.3 25.9-67.4 28.9-149.4 34.9-118 8.7-137.7-16.3-170 5.3-72.9 48.7 0 194.5-74.1 254.9-63.6 51.9-155.2-24.7-210.9 25-67.3 60.1 37.5 197.2-31.8 297.5-59.7 86.3-171.2 33.8-251.6 124-95 106.5-59.9 315-11.3 327.1z"/>
				</g>
				<g id="&lt;Group&gt;">
					<path id="&lt;Path&gt;" class="s4" d="m2264.6 2942.9c56.1 3.9 63.7-99.2 161.6-130 108.4-34.2 177.2 67.3 252.7 28.6 84.8-43.6 37-191.9 132.3-247.5 65.1-38.1 110.4 17.7 192.3-17.2 85.3-36.4 168.6-153.4 135.8-268.2-27.3-95.8-125.9-156.5-205.2-157.1-64.9-0.4-83.3 39.6-140 27.8-70.7-14.7-69.1-82.4-143.1-112.9-73.7-30.3-174.5-4.1-229.9 56.1-46.1 50.1-50.8 112.7-54.9 167.2-11.1 146.6 55.8 203.1 20.1 259.4-44.6 70.3-166.7 10.7-222.4 80.4-69.6 87.2 20 307.8 100.7 313.4z"/>
					<path id="&lt;Path&gt;" class="s1" d="m2237.3 2835.1c20.6 4.1 26.6-62.7 91.1-118.5 74-63.9 129.7-31.1 212.5-81.6 102.5-62.6 63.6-141.3 154.9-204.8 128-88.9 287 8.4 330-64.2 25.1-42.4-3.1-119.8-48.4-145-48.4-27-82.6 24.1-165.6 12-77.7-11.3-82-61.2-177.9-86.2-46.8-12.2-108.2-28.3-147.4 1.8-76.9 58.9-35.1 269.2-22.4 333.4 11.7 59.1 22.6 82 7.2 106.1-40.3 63-173.8-2-235.6 66-51.7 56.9-24.9 175.7 1.6 181z"/>
				</g>
			</g>
			<g id="&lt;Group&gt;">
				<g id="&lt;Group&gt;">
					<path id="&lt;Path&gt;" class="s5" d="m3263.9 2955.1l-2748-23.4v69.3c0 18.8 11.9 34.8 28.2 37.6l777 136.5c9.3 1.6 18.6 2.1 27.9 1.3l1885-155.6c16.9-1.4 29.9-17.5 29.9-36.8z"/>
					<g id="&lt;Group&gt;">
						<path id="&lt;Path&gt;" class="s5" d="m2266.6 2844l-1722.3 126.8c-30.8 2.3-55.9-21.8-55.9-53.8v-1282.6c0-32 25.1-58 55.9-58h1722.3c25.4 0 46 23.5 46 52.4v1159.4c0 29-20.6 54-46 55.8z"/>
						<path id="&lt;Path&gt;" class="s6" d="m2294.1 2844l-1722.4 126.8c-30.8 2.3-55.8-21.8-55.8-53.8v-1282.6c0-32 25-58 55.8-58h1722.4c25.4 0 45.9 23.5 45.9 52.4v1159.4c0 29-20.5 54-45.9 55.8z"/>
						<path id="&lt;Path&gt;" class="s7" d="m2240.4 2762.3l-1604.2 110.1c-25 1.7-45.4-18.1-45.4-44.2v-1122.9c0-26.1 20.4-47.4 45.4-47.5l1604.2-6.9c21-0.1 37.9 19.1 37.9 42.9v1022.8c0 23.8-16.9 44.2-37.9 45.7z"/>
						<path id="&lt;Path&gt;" class="s8" d="m1493.8 1611.5c0 11.9-8.9 21.6-19.9 21.6-10.9 0.1-19.8-9.6-19.8-21.5 0-12 8.9-21.7 19.8-21.7 11 0 19.9 9.7 19.9 21.6z"/>
						<path id="&lt;Path&gt;" class="s9" d="m571.7 2970.8l1713.7-126.1 8.7-0.7c11.7-0.8 22.2-6.6 30.3-15.3-123.3-6.8-199.9-50.5-249.3-95.8-99.2-90.8-82-180.3-189-240-133.5-74.5-238.4 19.9-339.7-73.2-61.4-56.5-31.2-98.6-106.8-182.9-83.6-93.4-138.1-62-222.2-146.1-106.3-106.3-53.2-189.1-144.8-265.4-111.1-92.6-230.9-6.9-336.7-95.7-45.6-38.3-70.6-94-83.7-153.2h-80.5c-30.8 0-55.8 26-55.8 58v1282.6c0 32 25 56.1 55.8 53.8z"/>
					</g>
					<path id="&lt;Path&gt;" class="s10" d="m2362.7 2837l-1846.8 133.4 805.2 141.5c9.3 1.6 18.6 2 27.9 1.3l1914.9-158.1-871.8-117.2c-9.7-1.3-19.6-1.6-29.4-0.9z"/>
					<path id="&lt;Path&gt;" class="s5" d="m785.4 2971.6l1537.5-112.8 475.9 63.5-1524.3 120.5z"/>
				</g>
			</g>
			<g id="&lt;Group&gt;">
				<g id="&lt;Group&gt;">
					<g id="&lt;Group&gt;">
						<path id="&lt;Path&gt;" class="s8" d="m3069.8 711v838.7c0 38.7-26.3 70.7-59.4 71.5l-275.6 6.7-850.4 20.8c-34.6 0.9-66.8-27.3-70.6-64.3-0.3-2.9-4.1-5.7-4.1-8.6v-893.6c0-15.1 7.7-29 14.7-40.5 0.2-0.4 2.2-0.6 2.4-0.9 12.2-19.5 33.6-31.9 56.8-31.3l129 3.4 997.6 26.5c33.1 0.9 59.6 32.9 59.6 71.6z"/>
						<path id="&lt;Path&gt;" class="s11" d="m1884.5 1625c-25.2 0.6-45.8-21.7-45.8-49.7v-892.5c0-27.9 20.6-50.2 45.8-49.5l1126.4 28.5c22.5 0.6 40.7 22.5 40.7 48.8v839.5c0 26.3-18.2 48.1-40.7 48.7z"/>
						<path id="&lt;Path&gt;" class="s0" d="m3010.9 639.4l-1126.4-29.9c-37.2-1-67.4 31.6-67.4 72.8v53.6l1253.6 25.4v-50.3c0-38.7-26.8-70.7-59.8-71.6z"/>
						<path id="&lt;Path&gt;" class="s8" d="m1937.1 675.8c0 12.3-9.8 22-21.9 21.8-12.2-0.3-22-10.5-22-22.8 0-12.3 9.8-22 22-21.7 12.1 0.3 21.9 10.5 21.9 22.7z"/>
						<path id="&lt;Path&gt;" class="s8" d="m2013.7 677.6c0 12.3-9.8 21.9-21.8 21.7-12-0.3-21.8-10.4-21.8-22.7 0-12.2 9.8-21.9 21.8-21.6 12 0.2 21.8 10.4 21.8 22.6z"/>
						<path id="&lt;Path&gt;" class="s8" d="m2089.7 679.4c0 12.2-9.7 21.8-21.6 21.6-12-0.3-21.6-10.4-21.6-22.6 0-12.2 9.6-21.9 21.6-21.6 11.9 0.3 21.6 10.4 21.6 22.6z"/>
						<path id="&lt;Path&gt;" class="s0" d="m3000.9 1551.5l-1105.2 23v-702.9l1105.2 15.1z"/>
						<g id="&lt;Group&gt;" style="opacity: .5">
							<path id="&lt;Path&gt;" class="s8" d="m2486.6 809l-590.9-10.2v38l590.9 9.1z"/>
							<path id="&lt;Path&gt;" class="s8" d="m2937.1 816.8v36l63.8 1v-35.9z"/>
						</g>
						<g id="&lt;Group&gt;" style="opacity: .5;mix-blend-mode: soft-light">
							<path id="&lt;Path&gt;" class="s8" d="m2741.9 1627.9l-850.4 20.8c-34.6 0.9-67-27.3-70.9-64.3 0-0.9-4-1.6-4-2.5v-900.1c0-14.9 7.9-28.6 14.6-40.1 0.2-0.4 2.3-0.6 2.5-0.9 12.1-20 33.8-32.9 57.2-32.2l128.3 3.4c0.1 0.3 0.5 0.6 0.6 0.9 2.4 7.8 5.1 15.8 8 23.8 11.4 31.9 26.6 65.4 47 98.3 1.2 2 2.5 4 3.8 6 15 23.5 31 43.9 47.6 61.7 13.3 14.2 27.1 26.8 41.2 38.1 16.5 13.3 33.6 24.8 50.9 35.1 124.9 74.1 265.1 83.8 358.1 232.3 79.7 127.3 22.6 194.1 99.8 388.9 8.3 21.2 17.3 41.4 26.9 60.7q12.2 24.8 25.4 47.7c4.4 7.6 8.9 15.1 13.4 22.4z"/>
						</g>
					</g>
					<g id="&lt;Clip Group&gt;">
						<g id="&lt;Group&gt;">
							<g id="&lt;Group&gt;">
								<path id="&lt;Path&gt;" class="s12" d="m2291.9 1544.7c-191.8-29.5-234.6-51.3-254.4-92.1-28.8-59.2-7.8-155.6 41.4-214.9 43-51.9 96.6-62 95-97.8-1.3-29.6-38-33.5-64.9-89.2-7.9-16.3-23.2-47.9-16.6-85.8 9.8-55.5 59.5-83.9 63.5-86.1 51.7-28.6 81.2 5.5 120-20.1 48.4-32.1 26.4-101.4 71.7-120.4 32.9-13.9 74.8 10 85.7 16.2 36.4 20.6 32.6 40.8 63.2 53.7 35.9 15.1 53-7.6 94.5 2.4 34.2 8.1 58.9 33.4 79 58.6 45.2 56.7 22.7 89.8 56 159.3 46.8 97.5 117.1 86.6 129.5 164.4 6.5 40.6-10.2 59 2.6 121.3 8.7 41.9 19.6 49.4 21.5 74.1 5.5 71-74.7 134.2-89.7 145.3-95.9 71.3-229.7 52.4-498 11.1z"/>
								<path id="&lt;Path&gt;" class="s13" d="m2597.1 1352.6c-125.6-8.8-211.2 111-245.2 81.7-32.3-28 58.8-123.5 27.7-234.5-30.5-109.2-151-132.7-141.5-194.4 10.8-69.7 171.9-85.8 168.1-137-2.2-30.2-59-37.6-70.3-85.8-3.1-13.1-2.1-26.1 1.1-38.1-31.3 24.9-17 85-61.1 114.2-38.8 25.6-68.3-8.5-120 20.1-4 2.2-53.7 30.6-63.5 86.1-6.6 37.9 8.7 69.5 16.6 85.8 26.9 55.7 63.6 59.6 64.9 89.2 1.6 35.8-52 45.9-95 97.8-49.2 59.3-70.2 155.7-41.4 214.9 19.8 40.8 62.6 62.6 254.4 92.1 268.3 41.3 402.1 60.2 498-11.1 37-27.5 80.6-74.1 89.9-115.2-18.6 17.6-36.9 26.3-54 29.7-79.7 15.7-116.7-87.7-228.7-95.5z"/>
							</g>
							<path id="&lt;Path&gt;" class="s14" d="m2077.9 1803.6c-29.1-72.9-11.3-188.1-7.6-212.4 14.6-94.6 48.9-153.3 61.4-174.1 85.3-142.6 214.5-141.5 311.3-140.7 47.8 0.4 97.1-0.7 157.3 21.5 0 0 47.5 17.6 87.6 46.8 119.3 87.1 213.2 372.4 117.3 481.8-61.3 70-124.4-17.1-399.8 29.6-111.4 18.9-229.3 49.7-299.6-11.2-11.6-10.1-20.8-23.6-27.9-41.3z"/>
							<path id="&lt;Path&gt;" class="s15" d="m2392.3 1105.5c0 0 20.4 152.8-83.4 183.3-12 3.5-15.7 19.4-6.6 28.2l127.9 124.4c7.7 7.5 19.8 6.8 26.9-1.4l114.6-133.4c7.5-8.7 4.2-22.6-6.3-26.6-36.7-14.1-102.6-55.3-88.7-166.7z"/>
							<path id="&lt;Path&gt;" class="s16" d="m2328.7 1020.2c0 1.6 28 151.2 99.6 151.4 67.4 0.1 92.9-109 101.2-159.9q1.3-13 2.6-26c-4.5 1.6-15.9 4.6-29.4 0.6-3.1-0.9-22.6-6.6-29.9-23.6-8.1-18.8 6.8-33.6-1.7-50.1-4.9-9.6-14.8-14.2-22.3-16.6 5 7.8 14.8 25.1 9.2 40.7-3.7 10.5-14.1 20.4-37.3 26.3-66.6 16.9-92.7 23.3-92 57.2z"/>
							<path id="&lt;Path&gt;" class="s17" d="m2346.2 1038.2c0 0-37-33-40.3-13-6.7 41.6 25 64.8 42.2 52.5 17.2-12.3-1.9-39.5-1.9-39.5z"/>
							<path id="&lt;Path&gt;" class="s18" d="m2508.4 1039.5c0 0 36.5-32 39.6-12.2 6.7 41.3-24.5 63.8-41.4 51.4-17-12.5 1.8-39.2 1.8-39.2z"/>
						</g>
					</g>
					<g id="&lt;Group&gt;">
						<path id="&lt;Path&gt;" class="s8" d="m2320.6 1489.1c0 21.8-17 39.7-38.1 40-21 0.3-38.2-17.3-38.2-39.2 0-21.9 17.2-39.8 38.2-40 21.1-0.2 38.1 17.3 38.1 39.2z"/>
						<path id="&lt;Path&gt;" class="s8" d="m2497.6 1487.1c0 21.6-16.8 39.4-37.5 39.7-20.8 0.2-37.7-17.2-37.7-38.9 0-21.7 16.9-39.5 37.7-39.7 20.7-0.2 37.5 17.2 37.5 38.9z"/>
						<path id="&lt;Path&gt;" class="s8" d="m2671.8 1485.1c0 21.5-16.5 39.1-36.9 39.4-20.5 0.3-37.1-17-37.1-38.6 0-21.5 16.6-39.2 37.1-39.4 20.4-0.2 36.9 17.1 36.9 38.6z"/>
					</g>
				</g>
				<g id="&lt;Group&gt;">
					<path id="&lt;Path&gt;" class="s8" d="m2895.3 1941.2v689.9c0 31.8-21.6 59.2-49 61.2l-227.5 16.3h-0.2l-696.4 49.8c-4.6 0.3-9 0-13.3-0.9-0.8-0.1-1.6-0.3-2.4-0.5q-2.3-0.6-4.6-1.4c-1.5-0.5-2.9-1.1-4.4-1.8-2.2-1.1-4.3-2.2-6.3-3.6q-2-1.3-3.8-2.8-1.9-1.5-3.6-3.1c-9.3-9-15.6-21.5-17.1-35.9-0.2-2.3-1.2-4.6-1.2-7v-728c0-0.7 0-1.3 0-2 0.1-0.8 0.2-1.5 0.2-2.3 0.9-10.5 4.7-20.4 9.7-28.9 0.2-0.3 0.8-0.6 0.9-0.8 8-13.3 20.6-23 35.1-26.5q2.6-0.6 5.2-1c1.8-0.3 3.5-0.2 5.4-0.3l104.8-2.8 226.2-6.6 593.2-17.1c0.7 0 1.2-0.1 1.9 0 0.7 0 1.4 0 2.2 0.1 0.7 0 1.4 0.1 2.1 0.1 24.4 2.9 42.9 26.5 42.9 55.9z"/>
					<path id="&lt;Path&gt;" class="s19" d="m1922.2 2739c-20.6 1.5-37.3-15.9-37.3-38.7v-727.1c0-22.8 16.7-41.8 37.3-42.4l924.6-27.3c18.7-0.5 33.8 16.6 33.8 38.3v690.5c0 21.6-15.1 40.3-33.8 41.6z"/>
					<path id="&lt;Path&gt;" class="s0" d="m2846.8 1885.1l-924.6 26.3c-30.3 0.9-54.9 28.8-54.9 62.3v43.6l1029.1-34.7v-41.3c0-31.8-22.1-57-49.6-56.2z"/>
					<path id="&lt;Path&gt;" class="s8" d="m1965 1963.1c0 10-8 18.4-17.9 18.7-9.8 0.3-17.8-7.5-17.8-17.6 0-10 8-18.3 17.8-18.6 9.9-0.3 17.9 7.5 17.9 17.5z"/>
					<path id="&lt;Path&gt;" class="s8" d="m2027.4 1961.2c0 10-8 18.3-17.7 18.6-9.9 0.3-17.8-7.5-17.8-17.5 0-10 7.9-18.3 17.8-18.6 9.7-0.3 17.7 7.5 17.7 17.5z"/>
					<path id="&lt;Path&gt;" class="s8" d="m2089.4 1959.3c0 9.9-7.9 18.2-17.6 18.5-9.8 0.3-17.7-7.5-17.7-17.4 0-10 7.9-18.3 17.7-18.6 9.7-0.3 17.6 7.5 17.6 17.5z"/>
					<path id="&lt;Path&gt;" class="s0" d="m2838.6 2635.4l-907.3 62v-572.9l907.3-35.6z"/>
					<g id="&lt;Group&gt;" style="opacity: .5">
						<path id="&lt;Path&gt;" class="s8" d="m2414.5 2047.7l-483.2 17.5v30.9l483.2-18.3z"/>
						<path id="&lt;Path&gt;" class="s8" d="m2785.8 2034.2v29.6l52.8-2v-29.5z"/>
					</g>
					<g id="&lt;Group&gt;" style="opacity: .5;mix-blend-mode: soft-light">
						<path id="&lt;Path&gt;" class="s8" d="m2618.8 2708.6l-696.6 49.8c-4.6 0.3-9 0-13.3-0.9-0.8-0.1-1.6-0.3-2.4-0.5q-2.3-0.6-4.6-1.4c-1.5-0.5-2.9-1.1-4.4-1.8-2.2-1.1-4.3-2.2-6.3-3.6q-2-1.3-3.8-2.8-1.9-1.5-3.6-3.1c-9.3-8.9-15.7-21.5-17.2-35.8 0-0.7-1.1-1.4-1.1-2.1v-733c0-0.7 0-1.3 0-2 0.1-0.8 0.2-1.5 0.2-2.3 0.8-10.5 4.7-20.4 9.6-28.9 0.1-0.3 0.8-0.6 0.9-0.8 9.9-16.8 27-28.2 46-28.8l103.9-2.9c0.1 0.2 0 0.5 0 0.7v0.1c3.5 6.2 4.5 12.6 6.8 19 9.3 25.5 21.8 52.1 38.5 78.1 1 1.6 2.1 3.2 3.2 4.8 12.2 18.5 25.3 34.4 38.9 48.2 10.8 11 22.1 20.7 33.7 29.4 13.5 10.1 27.4 18.8 41.6 26.4 0 0 0 0 0 0 21 11.4 42.5 20.4 64.2 28.7 83.7 32.2 168.8 52.6 229.5 146.1 58 89.2 28 144.2 64.1 263.7 3.7 12.5 8.2 25.7 13.6 39.8q2.1 5.5 4.4 11.2c6.9 17 14.3 33.2 22.2 48.7 6.7 13.3 13.7 26 21 38.2q5.4 9.1 11 17.8c0 0 0 0 0 0z"/>
					</g>
					<g id="&lt;Clip Group&gt;">
						<g id="&lt;Group&gt;">
							<path id="&lt;Path&gt;" class="s20" d="m2047.3 2859.3c-28-73 11.5-198.1 36.3-255.1 72-165.4 203.2-177.6 309.6-187.5 103.6-9.7 202.8-18.9 274.8 98.4 46.8 76.2 89.6 218 61.1 296.8-30.2 83.2-114.2 26.3-316.7 39.4-226.8 14.7-330.2 98.8-365.1 8z"/>
							<path id="&lt;Path&gt;" class="s21" d="m2491 2428.4c0 20-46.7 46.5-104.6 49.6-58.2 3.2-105.6-18.5-105.6-38.7 0-20.2 47.4-13.6 105.6-16.6 57.9-3 104.6-14.3 104.6 5.7z"/>
							<path id="&lt;Path&gt;" class="s22" d="m2347.7 2295.4c-16.1 0.8 20.9 116.2-37.4 135.3-5.7 1.9-6.6 9.8-1.5 12.5 15.7 8 45.1 17.6 93 15.1 31.1-1.7 53.7-15.1 65.5-24 4-3 3.6-9.3-0.7-11.4-17.8-8.6-42.6-37.9-35.2-128.4z"/>
							<path id="&lt;Path&gt;" class="s23" d="m2298.8 2156.8c0.3 1.4 5.1 108.5 28.7 160.9 6.8 15.1 40.2 11.6 61.8 8.8 18.8-2.5 48.1 3.2 56.3-10.6 33.1-55.7 27.5-189.3 27.5-189.3 0 0-16.9-43.9-86.7-40.1-70.1 3.8-87.6 70.3-87.6 70.3z"/>
							<path id="&lt;Path&gt;" class="s24" d="m2315.3 2213.7c0 0-14.7-17.2-28.6-19-13.9-1.8-23 36-4 59.5 18.9 23.5 40.8 2.4 40.8 2.4z"/>
							<path id="&lt;Path&gt;" class="s25" d="m2457.9 2207.6c0 0 14.5-18.3 28.2-21.2 13.6-2.9 22.5 33.8 3.9 58.7-18.7 24.9-40.3 5.9-40.3 5.9z"/>
							<path id="&lt;Path&gt;" class="s26" d="m2303.8 2212.8c1.8 3.5 4 6.7 5.4 6.2 5.9-1.8-17-61.2 4.1-83.1 11-11.3 23.2-1.9 67.8-5.7 44.8-3.9 56.2-15.5 69.7-7.4 12.2 7.3 23.2 29 14.1 95.1q3.8-1.1 7.6-2.2c-3.4-21.3 0.3-35.1 4.5-43.8 3.1-6.4 8.7-14.7 8.3-26.3-0.3-7.1-2.5-7.4-2.9-13.3-1.1-17.2 17.7-22.6 18.6-39.7 0.7-13.2-10.1-15.8-8.1-29.6 1.7-11.7 10.1-14.2 8.8-22.6-1.5-9.1-12.8-15.4-20.8-17.5-8.1-2.2-11 0.6-15.8-2.7-7.7-5.3-4-15.2-9.5-18.7-10-6.2-29.7 20.5-42.5 14.5-7.8-3.7-4.8-15.5-11.6-18.2-13.3-5-36.8 34.6-46.3 29.7-4.5-2.3-0.1-11.9-6.5-18.6-7.4-8-25.4-7.4-33.6 1.6-7.6 8.3-1.1 17.8-9.2 28.3-7.3 9.5-15.7 6-23.9 13.6-14 13.1-9.1 41.3-7.4 51.3 6 34.7 24.6 41 20.4 64.9-1.1 6.1-3.6 13-1.8 22.8 1.7 9.7 6.6 16.8 10.6 21.4z"/>
							<g id="&lt;Group&gt;" style="opacity: .3;mix-blend-mode: multiply">
								<path id="&lt;Path&gt;" class="s27" d="m2474 2131c-1.7-17 10.9-25.4 8.8-37.4-1.7-9.7-12.2-18-22.1-19.5-21.2-3.3-34.9 29.8-55.9 27.1-16.4-2.1-14.6-22.8-33-30.4-29.3-12.1-60.1 29.2-79.7 18.8-5.9-3.2-11.9-11.5-12.3-34.8-11.3 13.8-6.8 39.4-5.2 48.9 6 34.7 24.6 41 20.4 64.9-1.1 6.1-3.6 13-1.8 22.8 1.7 9.7 6.6 16.8 10.6 21.4 1.8 3.5 4 6.7 5.4 6.2 5.9-1.8-17-61.2 4.1-83.1 11-11.3 23.2-1.9 67.8-5.7 44.8-3.9 56.2-15.5 69.7-7.4 12.2 7.3 23.2 29 14.1 95.1q3.8-1.1 7.6-2.2c-3.4-21.3 0.3-35.1 4.5-43.8 1.3-2.6 3-5.6 4.5-9-0.3-5.6-1.2-11.8-3.1-18.2-2.3-7.6-3.9-8.3-4.4-13.7z"/>
							</g>
						</g>
					</g>
					<g id="&lt;Group&gt;">
						<path id="&lt;Path&gt;" class="s8" d="m2274 2597.1c0 17.8-14 33.2-31.2 34.2-17.3 1-31.3-12.6-31.3-30.5 0-17.9 14-33.3 31.3-34.2 17.2-1 31.2 12.6 31.2 30.5z"/>
						<path id="&lt;Path&gt;" class="s8" d="m2419.2 2588.5c0 17.8-13.8 33-30.8 34-17.1 1-30.9-12.5-30.9-30.3 0-17.8 13.8-33 30.9-34 17-1 30.8 12.6 30.8 30.3z"/>
						<path id="&lt;Path&gt;" class="s8" d="m2562.6 2580.1c0 17.6-13.6 32.7-30.4 33.8-16.8 1-30.5-12.5-30.5-30.2 0-17.7 13.7-32.8 30.5-33.8 16.8-1 30.4 12.6 30.4 30.2z"/>
					</g>
				</g>
				<path id="&lt;Path&gt;" class="s28" d="m2253 1902v327.7c0 46.5-33.4 85.9-74.8 88l-246.9 12.8-46.4 2.4-19.4 1v-360.5c0-0.7 0-1.3 0-2 0.1-0.8 0.2-1.5 0.2-2.3 0.8-10.5 4.7-20.4 9.6-28.9 0.1-0.3 0.8-0.6 0.9-0.8 9.9-16.8 27-28.2 46-28.8l104.3-2.9c0.1 0.2 0.2 0.5 0.3 0.7z"/>
				<g id="&lt;Group&gt;">
					<path id="&lt;Path&gt;" class="s0" d="m2215.1 1186.2c0-40.7-25.7-74.8-59.8-82.8-1.2-0.3-2.5-0.6-3.8-0.8-3.7-0.6-7.5-1-11.4-1l-714.5-4.2-705-4.1q-2.2 0-4.4 0.1c-18.8 0.9-36 8.2-49.8 19.9q-0.3 0.3-0.7 0.6-3 2.6-5.7 5.5-0.1 0-0.1 0.1-1.6 1.7-3.2 3.5c-13.7 16-22 37.2-22 60.5v65 1021c0 7.8 0.9 15.4 2.7 22.5q1.6 6.5 4 12.4c10.9 26.5 33.9 45.7 61.7 50.3 5.7 1 11.5 1.3 17.5 1l1078.9-55.8 340.8-17.7c41.3-2.1 74.8-41.5 74.8-88v-947.6z"/>
					<g id="&lt;Group&gt;">
						<path id="&lt;Path&gt;" class="s8" d="m2218.1 1185.7v1009c0 46.6-33.5 86-74.8 88.1l-345.8 17.9-1076.7 55.7c-44.1 2.3-83.1-30.8-88-75.8-0.4-3.4-3-1097.7-3-1097.7 0-18.3 7.6-35.4 16.5-49.7 0.3-0.4 1.7-0.7 2-1.1 15.5-24 42.3-39.7 71.9-39.5l164.1 1 1258.8 7.4c41.4 0.2 75 38.1 75 84.7z"/>
						<path id="&lt;Path&gt;" class="s29" d="m720.8 2327.6c-32.3 1.6-58.6-24.8-58.6-58.8v-1085.8c0-34.1 26.3-61.6 58.6-61.5l1422.4 6.4c28.1 0.2 50.9 26 50.9 57.7v1010.2c0 31.7-22.8 58.6-50.9 60z"/>
						<path id="&lt;Path&gt;" class="s0" d="m2143.2 1100.9l-1422.4-8.3c-47.5-0.2-86.1 40.2-86.1 90.3v65.1l1583.2-1.9v-60.5c0-46.5-33.3-84.4-74.7-84.7z"/>
						<path id="&lt;Path&gt;" class="s8" d="m787.8 1172c0 14.9-12.5 27-27.9 26.9-15.5 0-28-12.1-28-27.1 0-14.9 12.5-27 28-27 15.4 0.1 27.9 12.2 27.9 27.2z"/>
						<path id="&lt;Path&gt;" class="s8" d="m885.4 1172.2c0 14.8-12.4 26.8-27.7 26.8-15.4 0-27.8-12.1-27.8-27 0-14.8 12.4-26.9 27.8-26.8 15.3 0 27.7 12.1 27.7 27z"/>
						<path id="&lt;Path&gt;" class="s8" d="m982 1172.4c0 14.8-12.2 26.7-27.4 26.7-15.2 0-27.5-12-27.5-26.8 0-14.9 12.3-26.8 27.5-26.8 15.2 0.1 27.4 12.1 27.4 26.9z"/>
						<path id="&lt;Path&gt;" class="s0" d="m2130.7 2199.2l-1395.7 66.6v-854.8l1395.7-12.1z"/>
						<g id="&lt;Group&gt;" style="opacity: .5">
							<path id="&lt;Path&gt;" class="s8" d="m1484.8 1319l-749.8 3.5v46.2l749.8-5.1z"/>
							<path id="&lt;Path&gt;" class="s8" d="m2050.9 1316.4v43.4l79.8-0.5v-43.3z"/>
						</g>
						<g id="&lt;Group&gt;" style="opacity: .5;mix-blend-mode: soft-light">
							<path id="&lt;Path&gt;" class="s8" d="m1797.5 2300.7l-1076.7 55.7c-44.2 2.3-83.3-30.8-88.3-75.8 0-1-2.7-1098.2-2.7-1098.2 0-18.1 7.7-35 16.3-49.2 0.2-0.4 1.8-0.7 2.1-1.1 15.4-24.7 42.5-40.8 72.4-40.6l163.3 1c0.1 0.3 0.4 0.7 0.5 1.1 3 9.4 6.5 19 10.1 28.7 14.5 38.4 33.8 78.7 59.8 118.2 1.5 2.4 3.2 4.8 4.8 7.1 19.1 28.2 39.3 52.4 60.5 73.6 16.9 16.9 34.4 31.9 52.3 45.2 21 15.7 42.6 29.2 64.6 41.2 158.2 86.2 335.4 94 452.7 270.8 100.4 151.4 28.5 233.9 125.6 466.6 10.5 25.3 21.8 49.4 33.8 72.4q15.4 29.5 32 56.7c5.5 9 11.2 17.9 16.9 26.6z"/>
						</g>
					</g>
					<g id="&lt;Group&gt;">
						<path id="&lt;Path&gt;" class="s8" d="m1282.4 2113.2c0 31.8-24.9 58.6-55.7 59.9-30.8 1.4-55.9-23.5-55.9-55.4 0-32 25.1-58.9 55.9-60 30.8-1.2 55.7 23.7 55.7 55.5z"/>
						<path id="&lt;Path&gt;" class="s8" d="m1505.8 2104.1c0 31.5-24.3 58-54.4 59.3-30.2 1.3-54.7-23.2-54.7-54.9 0-31.6 24.5-58.1 54.7-59.3 30.1-1.1 54.4 23.5 54.4 54.9z"/>
						<path id="&lt;Path&gt;" class="s8" d="m1724.3 2095.3c0 31.1-23.7 57.4-53.2 58.6-29.5 1.3-53.5-23-53.5-54.3 0-31.3 24-57.5 53.5-58.6 29.5-1.1 53.2 23.2 53.2 54.3z"/>
					</g>
					<g id="&lt;Clip Group&gt;">
						<g id="&lt;Group&gt;">
							<path id="&lt;Path&gt;" class="s30" d="m1466.8 2302c-377.8 19.7-513 76-574.8-3.9-57.1-73.9-9.8-349.3 58.1-427.9 106.5-123.4 275.7-132.9 503.3-143.9 210.2-10.3 337.9-16.5 437.8 71.4 92.6 81.5 151.4 368.1 94.1 450.8-53.4 77.1-168.5 35.1-518.5 53.5z"/>
							<path id="&lt;Path&gt;" class="s31" d="m1328.3 1728.5l-44.1 12.2c-10.9 2.9-15.8 15.6-9.8 24.8 30.1 46 109.5 160.9 158.9 173.1 50.8 12.7 145.3-137 176.6-189.3 5.4-9 1.1-20.6-8.8-23.5l-31.6-9.5c-26-7.8-53.3-10.4-80.6-7.7l-119.4 12.2c-13.9 1.4-27.7 3.9-41.2 7.7z"/>
							<path id="&lt;Path&gt;" class="s32" d="m1361 1557.5c0 0 24.1 172.9-9.3 190.2l94.8 100.9 95.2-124c0 0-35.9-26.4-26.5-169.2z"/>
							<path id="&lt;Path&gt;" class="s33" d="m1304.8 1309.5c-3.5 4.7-48.4 224.3 106.3 245.1 152.8 20.6 159.5-139.6 157.5-207.5-1.9-67.9-71.5-92.5-111.5-97.2-40.2-4.7-140.1 43.1-152.3 59.6z"/>
							<path id="&lt;Path&gt;" class="s34" d="m1295.8 1437.4c0 0-7.8-35.7-34.4-13.2-26.7 22.6 15.7 81.6 50.6 78.7z"/>
							<path id="&lt;Path&gt;" class="s35" d="m1564 1410.4c-4.4 3-16.9 86.3-16.9 86.3 0 0 21.9 2.4 37.7-27.6 15.8-30 23.4-89.2-20.8-58.7z"/>
							<path id="&lt;Compound Path&gt;" fill-rule="evenodd" class="s5" d="m1613.7 1329.3c-12.4 30.5-23.7 35.3-34.7 64.9-8.8 23.7-12.2 42.9-12.4 42.9-7.9 42-11.4 76.6-13.1 101.2-2.4 34.6-1.1 47.5-11.3 61.9-19 26.8-56.8 29.6-87.2 31.9-26.6 2-90.1 6.7-118-30.9-8.1-10.9-7.6-17.8-16.3-51.8-9.5-37.5-19.8-67.1-27.1-86.2-17.2-31.8-34-55.9-46.2-72.2-27.3-36.4-45.5-51.5-55.2-85.9-4.1-14.3-9.3-33.7-1.6-54 8.2-21.6 22.7-22.6 39.1-44.6 23.9-32.1 8.4-50.4 26.6-75.3 23.3-32 80.9-45.6 120.1-28.3 40.3 17.7 41.5 59.3 71.8 60.1 24.9 0.7 32.8-26.9 67.5-27.3 4.6 0 30.2-0.3 40.6 15.4 12.5 18.7-10.8 39-0.9 60.7 11.8 25.7 52.1 13.1 68.1 39.7 12.9 21.7 0.1 53.3-9.8 77.8zm-61.8 109.6c6.1-17.7 13.2-50.3 0.8-86.6-20.3-59-75.5-79.1-82.5-81.5-2.2 10.8-7 25-19 34.4-31.5 24.5-75.4-13.1-109.9 9-23.8 15.2-28.5 49.5-32.5 79.2-3.3 24.3-1.3 45.3 1.6 60.7 4.9 23.6 28.4 35.7 38.6 40 24.3 10.3 40.5-13.9 91.7-11.5 25.6 1.2 38.2 5.6 57 0.3 25.4-7.1 42.8-26.6 54.2-44z"/>
							<path id="&lt;Path&gt;" class="s36" d="m1391.7 1520.1c19.8 5.9 49.5 9.7 82.7-3.3 3.5-1.4 6.4 2.4 3.5 4.5-11.8 8.6-29.2 17.8-48 16.6-15.7-1-30-6.8-41.1-13-3.2-1.7-0.7-5.8 2.9-4.8z"/>
						</g>
					</g>
					<g id="&lt;Group&gt;">
						<path id="&lt;Path&gt;" class="s8" d="m1274.5 2112.9c0 26.5-21.6 48.7-48.2 49.8-26.8 1-48.5-19.7-48.5-46.2 0-26.6 21.7-48.9 48.5-49.8 26.6-0.9 48.2 19.8 48.2 46.2z"/>
						<path id="&lt;Path&gt;" class="s8" d="m1498.1 2104.8c0 26.2-21.2 48.2-47.3 49.2-26.3 1-47.6-19.5-47.6-45.8 0-26.3 21.3-48.3 47.6-49.2 26.1-0.9 47.3 19.6 47.3 45.8z"/>
						<path id="&lt;Path&gt;" class="s8" d="m1717.6 2096.7c0 26-20.7 47.9-46.4 48.8-25.8 1-46.7-19.3-46.7-45.4 0-26 20.9-47.9 46.7-48.7 25.7-0.9 46.4 19.4 46.4 45.3z"/>
					</g>
				</g>
			</g>
			<g id="&lt;Group&gt;">
				<g id="&lt;Group&gt;">
					<path id="&lt;Path&gt;" class="s37" d="m1098.2 1215.9c30.1-37.7 47.4-82 47.4-129.3 0-137.7-146.5-249.2-327.3-249.2-180.8 0-327.4 111.5-327.4 249.2 0 137.6 146.6 249.2 327.4 249.2 67.7 0 130.7-15.7 182.9-42.5 34.5 5.9 88.1 15.8 116.4 21 8.3 1.6 15.1-6.6 12.1-14.5z"/>
					<g id="&lt;Group&gt;" style="opacity: .3;mix-blend-mode: multiply">
						<path id="&lt;Path&gt;" class="s38" d="m997.4 1139.3c-73.4-30.8-154.1 34.3-204.6-11.1-50.9-45.8 4.1-136.4-44.6-200.9-23.2-30.8-62.3-45.3-106.9-50.4-90.5 44.3-150.4 121.7-150.4 209.7 0 137.6 146.6 249.2 327.4 249.2 67.7 0 130.7-15.7 182.9-42.5 27.2 4.6 66.3 11.8 95.5 17.2-21.5-111.6-61.1-155.1-99.3-171.2z"/>
					</g>
				</g>
				<g id="&lt;Group&gt;">
					<path id="&lt;Path&gt;" class="s8" d="m1035.4 995.5c0 6.9-5.7 12.6-12.6 12.6h-398c-6.9 0-12.5-5.7-12.5-12.6 0-6.9 5.6-12.6 12.5-12.6h398c6.9 0 12.6 5.7 12.6 12.6z"/>
					<g id="&lt;Group&gt;">
						<path id="&lt;Path&gt;" class="s8" d="m1035.4 1070.9c0 6.9-5.7 12.6-12.6 12.6h-398c-6.9 0-12.5-5.7-12.5-12.6 0-6.9 5.6-12.6 12.5-12.6h398c6.9 0 12.6 5.7 12.6 12.6z"/>
						<path id="&lt;Path&gt;" class="s8" d="m846.9 1146.3c0 6.9-5.7 12.6-12.6 12.6h-209.5c-6.9 0-12.5-5.7-12.5-12.6 0-6.9 5.6-12.6 12.5-12.6h209.5c6.9 0 12.6 5.7 12.6 12.6z"/>
					</g>
				</g>
			</g>
		</g>
	</g>
</svg>